<svg width="32" height="32" viewBox="0 0 24 24" fill="none" xmlns="http://www.w3.org/2000/svg">
<path d="M10.4279 21.75V16.1786H3.0865C2.62496 16.1786 2.25082 15.7888 2.25082 15.308V3.12054C2.25082 2.63975 2.62496 2.25 3.0865 2.25H18.1288C18.5904 2.25 18.9645 2.63975 18.9645 3.12054V7.82143M10.4279 21.75H13.5403M10.4279 21.75H7.31482M2.25 5.73214H18.9637M18.4767 16.1149V15.7408M18.4767 16.1149C18.368 16.1149 18.2703 16.0658 18.2037 15.9879M18.4767 16.1149C18.5303 16.1149 18.5812 16.103 18.627 16.0816M18.8404 15.7408C18.8404 15.6478 18.8074 15.5628 18.7529 15.4973M18.8404 15.7408H18.4767M18.8404 15.7408C18.8404 15.8355 18.8062 15.922 18.7498 15.9879M18.4767 15.3667C18.5872 15.3667 18.6862 15.4174 18.7529 15.4973M18.4767 15.3667V15.7408M18.4767 15.3667C18.426 15.3667 18.3778 15.3774 18.3339 15.3967M18.113 15.7408H18.4767M18.113 15.7408C18.113 15.6395 18.1522 15.5477 18.2157 15.4803M18.113 15.7408C18.113 15.7839 18.1201 15.8254 18.1332 15.8639M18.7529 15.4973L18.4767 15.7408M18.4767 15.7408L18.2037 15.9879M18.4767 15.7408L18.2157 15.4803M18.4767 15.7408L18.7498 15.9879M18.4767 15.7408L18.1332 15.8639M18.4767 15.7408L18.3339 15.3967M18.4767 15.7408L18.627 16.0816M18.2037 15.9879C18.1729 15.952 18.1488 15.91 18.1332 15.8639M18.2157 15.4803C18.2491 15.4449 18.2892 15.4163 18.3339 15.3967M18.7498 15.9879C18.716 16.0274 18.6742 16.0595 18.627 16.0816M21.75 17.468V14.0136C21.75 13.9639 21.7371 13.9151 21.7127 13.8722C21.6883 13.8293 21.6531 13.7938 21.611 13.7694L18.6105 12.036C18.5696 12.0124 18.5236 12 18.4767 12C18.4299 12 18.3838 12.0124 18.343 12.036L15.3425 13.7694C15.3003 13.7938 15.2652 13.8293 15.2408 13.8722C15.2164 13.9151 15.2035 13.9639 15.2035 14.0136V17.468C15.2035 17.5177 15.2164 17.5665 15.2408 17.6095C15.2652 17.6524 15.3003 17.6878 15.3425 17.7122L18.343 19.4457C18.3838 19.4692 18.4299 19.4816 18.4767 19.4816C18.5236 19.4816 18.5696 19.4692 18.6105 19.4457L21.611 17.7122C21.6531 17.6878 21.6883 17.6524 21.7127 17.6095C21.7371 17.5665 21.75 17.5177 21.75 17.468Z" stroke="currentColor" stroke-width="1.5" stroke-linecap="round" stroke-linejoin="round"/>
</svg>
