<svg width="32" height="32" viewBox="0 0 24 24" fill="none" xmlns="http://www.w3.org/2000/svg">
<path d="M8.10781 18.1619C7.72002 17.1095 6.89047 16.28 5.83809 15.8922L2.70073 14.7361C2.56849 14.6873 2.45439 14.5991 2.3738 14.4835C2.29321 14.3678 2.25 14.2302 2.25 14.0893C2.25 13.9483 2.29321 13.8107 2.3738 13.6951C2.45439 13.5794 2.56849 13.4913 2.70073 13.4425L5.83809 12.2864C6.89047 11.8986 7.72002 11.069 8.10781 10.0167L9.26389 6.8793C9.3127 6.74706 9.40087 6.63296 9.51652 6.55237C9.63218 6.47178 9.76976 6.42857 9.91072 6.42857C10.0517 6.42857 10.1893 6.47178 10.3049 6.55237C10.4206 6.63296 10.5087 6.74706 10.5575 6.8793L11.7136 10.0167C12.1014 11.069 12.931 11.8986 13.9834 12.2864L17.1207 13.4425C17.2529 13.4913 17.367 13.5794 17.4476 13.6951C17.5282 13.8107 17.5714 13.9483 17.5714 14.0893C17.5714 14.2302 17.5282 14.3678 17.4476 14.4835C17.367 14.5991 17.2529 14.6873 17.1207 14.7361L13.9834 15.8922C12.931 16.28 12.1014 17.1095 11.7136 18.1619L10.5575 21.2993C10.5087 21.4315 10.4206 21.5456 10.3049 21.6262C10.1893 21.7068 10.0517 21.75 9.91072 21.75C9.76975 21.75 9.63218 21.7068 9.51652 21.6262C9.40087 21.5456 9.3127 21.4315 9.26389 21.2993L8.10781 18.1619Z" stroke="currentColor" stroke-width="1.5"/>
<path d="M17.4484 7.58334C17.2721 7.10498 16.895 6.72791 16.4167 6.55165L14.9906 6.02615C14.9305 6.00397 14.8786 5.96389 14.842 5.91132C14.8054 5.85875 14.7857 5.79622 14.7857 5.73214C14.7857 5.66807 14.8054 5.60554 14.842 5.55297C14.8786 5.5004 14.9305 5.46032 14.9906 5.43813L16.4167 4.91264C16.895 4.73637 17.2721 4.35931 17.4484 3.88095L17.9738 2.45488C17.996 2.39477 18.0361 2.34291 18.0887 2.30627C18.1413 2.26964 18.2038 2.25 18.2679 2.25C18.3319 2.25 18.3945 2.26964 18.447 2.30627C18.4996 2.34291 18.5397 2.39477 18.5619 2.45488L19.0874 3.88095C19.2636 4.35931 19.6407 4.73637 20.1191 4.91264L21.5451 5.43813C21.6052 5.46032 21.6571 5.5004 21.6937 5.55297C21.7304 5.60554 21.75 5.66807 21.75 5.73214C21.75 5.79622 21.7304 5.85875 21.6937 5.91132C21.6571 5.96389 21.6052 6.00397 21.5451 6.02616L20.1191 6.55165C19.6407 6.72791 19.2636 7.10498 19.0874 7.58334L18.5619 9.00941C18.5397 9.06952 18.4996 9.12138 18.447 9.15801C18.3945 9.19465 18.3319 9.21429 18.2679 9.21429C18.2038 9.21429 18.1412 9.19465 18.0887 9.15801C18.0361 9.12138 17.996 9.06952 17.9738 9.00941L17.4484 7.58334Z" stroke="currentColor" stroke-width="1.5"/>
</svg>
