<svg width="32" height="32" viewBox="0 0 24 24" fill="none" xmlns="http://www.w3.org/2000/svg">
<path d="M13.875 13.5V17.25M10.125 13.5V17.25M12 5.25V1.5M15 10H15.5M8.5 10H9M5.25 5.25H18.75C19.9926 5.25 21 6.25736 21 7.5V18C21 19.2426 19.9926 20.25 18.75 20.25H5.25C4.00736 20.25 3 19.2426 3 18V7.5C3 6.25736 4.00736 5.25 5.25 5.25ZM8.625 13.5H15.375C16.4105 13.5 17.25 14.3395 17.25 15.375C17.25 16.4105 16.4105 17.25 15.375 17.25H8.625C7.58947 17.25 6.75 16.4105 6.75 15.375C6.75 14.3395 7.58947 13.5 8.625 13.5Z" stroke="currentColor" stroke-width="1.5" stroke-linecap="round" stroke-linejoin="round"/>
</svg>
