<svg width="32" height="32" viewBox="0 0 24 24" fill="none" xmlns="http://www.w3.org/2000/svg">
<path d="M21.75 15.1393L17.223 20.0294L15.1704 17.9768L11.4266 21.75M21.75 15.1393V17.7051M21.75 15.1393H19.2265M21.408 9.52995V8.77024L21.4079 11.8087M21.408 9.52995V6.54644C21.408 6.07408 20.9791 5.69118 20.4501 5.69118H17.5692M21.408 9.52995H20.5692C18.9123 9.52995 17.5692 8.1868 17.5692 6.52995V5.69118M17.5692 5.69118H4.87019H3.20803C2.679 5.69118 2.25012 6.07408 2.25012 6.54644V8.3112L2.25 17.0351V18.7999C2.25 19.2722 2.67888 19.6551 3.20791 19.6551H4.87008H8.78082M2.25012 9.52995H2.43269C4.45199 9.52995 6.08894 7.893 6.08894 5.87371V5.69118M2.25012 15.8163H2.43269C4.45199 15.8163 6.08894 17.4533 6.08894 19.4726V19.6551M4.77375 2.25H18.9414M9.42105 12.5604C9.42105 13.9847 10.5757 15.1393 12 15.1393C13.4243 15.1393 14.5789 13.9847 14.5789 12.5604C14.5789 11.1361 13.4243 9.98145 12 9.98145C10.5757 9.98145 9.42105 11.1361 9.42105 12.5604Z" stroke="currentColor" stroke-width="1.5" stroke-linecap="round" stroke-linejoin="round"/>
</svg>
