<svg width="32" height="32" viewBox="0 0 24 24" fill="none" xmlns="http://www.w3.org/2000/svg">
<path d="M22 6.5C22 9.53757 17.5228 12 12 12C6.47715 12 2 9.53757 2 6.5M22 6.5C22 3.46243 17.5228 1 12 1C6.47715 1 2 3.46243 2 6.5M22 6.5V12M2 6.5V12M2 12C2 15.0376 6.47715 17.5 12 17.5C17.5228 17.5 22 15.0376 22 12M2 12V17.5C2 20.5376 6.47715 23 12 23C17.5228 23 22 20.5376 22 17.5V12M14.0455 5.32037H16.5M16.5 5.32037V3.9259M16.5 5.32037L15.0539 4.49876C14.2164 4.02298 13.0825 3.75396 11.8981 3.75004C10.7138 3.74613 9.57446 4.00763 8.72727 4.47784M9.95455 7.17967H7.5M7.5 7.17967V8.57414M7.5 7.17967L8.94614 8.00124C9.78363 8.47702 10.9175 8.74604 12.1019 8.74996C13.2862 8.75387 14.4255 8.49237 15.2727 8.02216" stroke="currentColor" stroke-width="1.5" stroke-linecap="round" stroke-linejoin="round"/>
</svg>
