<svg width="32" height="32" viewBox="0 0 24 24" fill="none" xmlns="http://www.w3.org/2000/svg">
<path d="M4.90334 8.58739C5.07209 8.23114 5.26897 7.89364 5.49397 7.56551L5.45647 5.12801C5.45647 4.90301 5.55022 4.68739 5.72834 4.53739C6.60022 3.80614 7.59396 3.21551 8.69084 2.82176C8.90646 2.74676 9.14084 2.76551 9.32834 2.88739L11.419 4.14364C11.8127 4.11551 12.2065 4.11551 12.6002 4.14364L14.6908 2.88739C14.8877 2.77489 15.1221 2.74676 15.3377 2.82176C16.4065 3.20614 17.4096 3.77801 18.3002 4.52801C18.469 4.66864 18.5721 4.89364 18.5627 5.11864L18.5252 7.55614C18.7502 7.88426 18.9471 8.22176 19.1158 8.57801L21.244 9.75926C21.4408 9.87176 21.5815 10.0593 21.619 10.2843C21.8158 11.3999 21.8252 12.5624 21.619 13.6968C21.5815 13.9218 21.4408 14.1093 21.244 14.2218L19.1158 15.403C18.9471 15.7593 18.7502 16.0968 18.5252 16.4249L18.5627 18.8624C18.5627 19.0874 18.469 19.303 18.2908 19.453C17.419 20.1843 16.4252 20.7749 15.3283 21.1686C15.1127 21.2436 14.8783 21.2249 14.6908 21.103L12.6002 19.8468C12.2065 19.8749 11.8127 19.8749 11.419 19.8468L9.32834 21.103C9.13146 21.2155 8.89709 21.2436 8.68146 21.1686C7.61271 20.7843 6.60959 20.2124 5.71897 19.4624C5.55022 19.3218 5.44709 19.0968 5.45647 18.8718L5.49397 16.4343C5.26897 16.1061 5.07209 15.7686 4.90334 15.4124L2.77522 14.2311C2.57834 14.1186 2.43772 13.9311 2.40022 13.7061C2.20334 12.5905 2.19397 11.428 2.40022 10.2936C2.43772 10.0686 2.57834 9.88114 2.77522 9.76864L4.90334 8.58739Z" stroke="currentColor" stroke-width="1.5" stroke-miterlimit="10" stroke-linecap="round" stroke-linejoin="round"/>
<path d="M12.0001 15.5999C13.9883 15.5999 15.6001 13.9881 15.6001 11.9999C15.6001 10.0117 13.9883 8.39991 12.0001 8.39991C10.0119 8.39991 8.40012 10.0117 8.40012 11.9999C8.40012 13.9881 10.0119 15.5999 12.0001 15.5999Z" stroke="currentColor" stroke-width="1.5" stroke-miterlimit="10" stroke-linecap="round" stroke-linejoin="round"/>
</svg>
