<svg width="32" height="32" viewBox="0 0 24 24" fill="none" xmlns="http://www.w3.org/2000/svg">
<path d="M2.25049 12.2776C2.25049 6.7395 6.61571 2.25 12.0005 2.25M2.25049 12.2776C2.25049 14.4605 2.92873 16.4806 4.08032 18.127C4.88672 19.2799 5.92523 20.2496 7.12549 20.9636C7.16132 20.9831 7.20057 21.0043 7.24226 21.0269M2.25049 12.2776H21.7505C21.7505 6.7395 17.3853 2.25 12.0005 2.25M12.0005 2.25C9.92942 2.25 8.25049 6.7395 8.25049 12.2776C8.25049 14.2485 8.57339 15.9844 9.06504 17.476M12.0005 2.25C14.0716 2.25 15.7505 6.7395 15.7505 12.2776C15.7505 12.8022 15.7795 13.5488 15.7505 14.0517C15.7389 14.2522 15.7194 14.4909 15.6854 14.7581M21.7505 16.1278V18.4121M21.7505 16.1278H19.298M21.7505 16.1278L16.7856 21.0963L14.5402 18.6277L11.0807 21.75" stroke="currentColor" stroke-width="1.5" stroke-linecap="round" stroke-linejoin="round"/>
</svg>
