<svg width="32" height="32" viewBox="0 0 24 24" fill="none" xmlns="http://www.w3.org/2000/svg">
<path d="M7.98765 12.375C7.98765 10.8916 8.40864 9.44159 9.19739 8.20823C9.98614 6.97486 11.1072 6.01356 12.4189 5.44591C13.7305 4.87825 15.1738 4.72972 16.5662 5.01911C17.4758 5.20815 18.337 5.57851 19.1047 6.10501M8.51877 9.53846C7.82837 9.35412 7.10835 9.32533 6.40649 9.45397C5.70463 9.58262 5.03698 9.86578 4.44787 10.2846C3.85875 10.7035 3.36164 11.2485 2.98953 11.8834C2.61742 12.5184 2.37882 13.2288 2.28957 13.9674C2.20032 14.7061 2.26246 15.4562 2.47186 16.1678C2.68127 16.8795 3.03315 17.5364 3.50415 18.0951C3.97515 18.6538 4.55449 19.1015 5.20373 19.4083C5.85297 19.7152 6.55725 19.8743 7.26983 19.875L8.58828 19.875H8.91789M13.6182 14.875H20.9577M13.6182 14.875C13.1806 14.875 12.8258 14.5019 12.8258 14.0417V10.7083C12.8258 10.2481 13.1806 9.875 13.6182 9.875H20.9577C21.3953 9.875 21.75 10.2481 21.75 10.7083V14.0417C21.75 14.5019 21.3953 14.875 20.9577 14.875M13.6182 14.875C13.1806 14.875 12.8258 15.2481 12.8258 15.7083V19.0417C12.8258 19.5019 13.1806 19.875 13.6182 19.875H20.9577C21.3953 19.875 21.75 19.5019 21.75 19.0417V15.7083C21.75 15.2481 21.3953 14.875 20.9577 14.875M16.583 12.407H16.2376M16.583 17.407H16.2376" stroke="currentColor" stroke-width="1.5" stroke-linecap="round" stroke-linejoin="round"/>
</svg>
