<svg width="28" height="28" viewBox="0 0 18 19" fill="none" xmlns="http://www.w3.org/2000/svg">
<path d="M6 1.49512H1.5C1.08579 1.49512 0.75 1.8309 0.75 2.24512V17.2451C0.75 17.6593 1.08579 17.9951 1.5 17.9951H6C6.41421 17.9951 6.75 17.6593 6.75 17.2451V2.24512C6.75 1.8309 6.41421 1.49512 6 1.49512Z" stroke="currentColor" stroke-width="1.5" stroke-linecap="round" stroke-linejoin="round"/>
<path d="M16.6565 17.0358L12.268 17.9733C12.1713 17.9939 12.0715 17.9951 11.9742 17.977C11.877 17.9588 11.7844 17.9216 11.7016 17.8675C11.6188 17.8134 11.5476 17.7434 11.4919 17.6617C11.4363 17.5799 11.3974 17.488 11.3774 17.3911L8.26678 2.6011C8.22494 2.40573 8.26208 2.20174 8.3701 2.03365C8.47812 1.86556 8.64824 1.74702 8.84334 1.70392L13.2318 0.766417C13.3285 0.745839 13.4284 0.744593 13.5256 0.762753C13.6228 0.780912 13.7154 0.818117 13.7982 0.872226C13.881 0.926336 13.9522 0.996282 14.0079 1.07804C14.0635 1.15979 14.1024 1.25175 14.1224 1.3486L17.233 16.1386C17.2749 16.334 17.2377 16.538 17.1297 16.7061C17.0217 16.8741 16.8516 16.9927 16.6565 17.0358Z" stroke="currentColor" stroke-width="1.5" stroke-linecap="round" stroke-linejoin="round"/>
<path d="M0.75 4.49512H6.75" stroke="currentColor" stroke-width="1.5" stroke-linecap="round" stroke-linejoin="round"/>
<path d="M0.75 14.9951H6.75" stroke="currentColor" stroke-width="1.5" stroke-linecap="round" stroke-linejoin="round"/>
<path d="M8.73389 4.8216L14.5886 3.56348" stroke="currentColor" stroke-width="1.5" stroke-linecap="round" stroke-linejoin="round"/>
<path d="M9.35547 7.77961L15.2111 6.52148" stroke="currentColor" stroke-width="1.5" stroke-linecap="round" stroke-linejoin="round"/>
<path d="M10.9116 15.1771L16.7663 13.9189" stroke="currentColor" stroke-width="1.5" stroke-linecap="round" stroke-linejoin="round"/>
</svg>
