<svg width="32" height="32" viewBox="0 0 24 24" fill="none" xmlns="http://www.w3.org/2000/svg">
<path d="M19.9209 7.12962C19.9872 7.24146 20.0222 7.36869 20.0222 7.49825V9.74913M19.9209 7.12962C19.8545 7.01778 19.7592 6.92536 19.6447 6.86184L15.5719 4.60281M19.9209 7.12962L11.2239 12M11.1361 21.75C11.0089 21.75 10.8839 21.7177 10.773 21.6562L2.62746 17.1382C2.51295 17.0746 2.41763 16.9822 2.35129 16.8704C2.28496 16.7585 2.25 16.6313 2.25 16.5017V12V7.49825C2.25 7.36869 2.28496 7.24146 2.35129 7.12962C2.41763 7.01778 2.51295 6.92536 2.62746 6.86184L10.773 2.34377C10.8839 2.2823 11.0089 2.25 11.1361 2.25C11.2632 2.25 11.3883 2.2823 11.4991 2.34377L15.5719 4.60281M11.1361 21.75C11.2632 21.75 11.3883 21.7177 11.4991 21.6562L13.5355 20.5267M11.1361 21.75L11.18 16.875L11.2239 12M11.2239 12L6.78824 9.56376M2.35256 7.12752L6.78824 9.56376M15.5719 4.60281L6.78824 9.56376M6.78824 9.56376L6.72598 12.9683M18.5411 16.4852V16.1236M18.5411 16.4852C18.4345 16.4852 18.3388 16.4377 18.2734 16.3624M18.5411 16.4852C18.5937 16.4852 18.6435 16.4737 18.6884 16.453M18.8977 16.1236C18.8977 16.0337 18.8653 15.9515 18.8118 15.8882M18.8977 16.1236H18.5411M18.8977 16.1236C18.8977 16.2151 18.8641 16.2987 18.8088 16.3624M18.5411 15.762C18.6494 15.762 18.7464 15.8109 18.8118 15.8882M18.5411 15.762V16.1236M18.5411 15.762C18.4914 15.762 18.4441 15.7723 18.4011 15.7909M18.1846 16.1236H18.5411M18.1846 16.1236C18.1846 16.0257 18.223 15.9369 18.2853 15.8718M18.1846 16.1236C18.1846 16.1653 18.1916 16.2053 18.2043 16.2426M18.8118 15.8882L18.5411 16.1236M18.5411 16.1236L18.2734 16.3624M18.5411 16.1236L18.2853 15.8718M18.5411 16.1236L18.8088 16.3624M18.5411 16.1236L18.2043 16.2426M18.5411 16.1236L18.4011 15.7909M18.5411 16.1236L18.6884 16.453M18.2734 16.3624C18.2433 16.3277 18.2197 16.2871 18.2043 16.2426M18.2853 15.8718C18.318 15.8376 18.3573 15.8099 18.4011 15.7909M18.8088 16.3624C18.7757 16.4006 18.7347 16.4317 18.6884 16.453M21.75 17.7932V14.4539C21.75 14.4059 21.7374 14.3587 21.7134 14.3172C21.6895 14.2757 21.655 14.2414 21.6137 14.2179L18.6722 12.5422C18.6322 12.5194 18.5871 12.5074 18.5411 12.5074C18.4952 12.5074 18.4501 12.5194 18.41 12.5422L15.4686 14.2179C15.4272 14.2414 15.3928 14.2757 15.3689 14.3172C15.3449 14.3587 15.3323 14.4059 15.3323 14.4539V17.7932C15.3323 17.8413 15.3449 17.8885 15.3689 17.93C15.3928 17.9714 15.4272 18.0057 15.4686 18.0293L18.41 19.705C18.4501 19.7278 18.4952 19.7398 18.5411 19.7398C18.5871 19.7398 18.6322 19.7278 18.6722 19.705L21.6137 18.0293C21.655 18.0057 21.6895 17.9714 21.7134 17.93C21.7374 17.8885 21.75 17.8413 21.75 17.7932Z" stroke="currentColor" stroke-width="1.5" stroke-linecap="round" stroke-linejoin="round"/>
</svg>
